<svg width="312" height="60" viewBox="0 0 312 60" fill="none" xmlns="http://www.w3.org/2000/svg">
<g clip-path="url(#clip0_169_12190)">
<path fill-rule="evenodd" clip-rule="evenodd" d="M2.43235 25.6049L26.4707 2.17675C28.9974 -0.284176 33.1303 -0.284176 35.656 2.17675L59.6945 25.6049C62.2201 28.0667 62.2201 32.0946 59.6935 34.5564L35.6551 57.9846C33.1294 60.4474 28.9955 60.4474 26.4688 57.9846L2.43039 34.5574C-0.0952881 32.0955 -0.0933333 28.0667 2.43235 25.6049ZM4.8271 27.9153L28.8431 4.50968C30.0644 3.31922 32.0653 3.31922 33.2867 4.50968L57.3027 27.9153C58.524 29.1057 58.524 31.0557 57.3016 32.247L33.2857 55.6507C32.0644 56.8412 30.0644 56.8412 28.842 55.6507L4.8271 32.247C3.60481 31.0557 3.60481 29.1057 4.8271 27.9153Z" fill="#00D29D"/>
<path d="M91.6999 18.5437C91.6999 18.2792 91.7442 18.0402 91.8286 17.8322C91.9164 17.6167 92.0502 17.4342 92.2284 17.2854C92.3997 17.1405 92.5898 17.0323 92.7995 16.9608C93.0093 16.8893 93.2334 16.8535 93.4747 16.8535C93.7032 16.8535 93.9197 16.8902 94.1226 16.9617C94.3263 17.0342 94.5121 17.1434 94.6818 17.2854C95.0338 17.581 95.2103 17.9884 95.2103 18.5051V31.4788C95.2103 32.7004 95.0654 33.8362 94.7781 34.8865C94.4908 35.9386 94.0578 36.9051 93.4807 37.7831C92.9061 38.6564 92.2429 39.4225 91.4936 40.0812C90.7434 40.739 89.9037 41.2886 88.9788 41.7299C88.0556 42.1695 87.1051 42.4998 86.1256 42.719C85.1448 42.9383 84.1355 43.0493 83.0998 43.0493C82.0632 43.0493 81.0539 42.9392 80.0728 42.719C79.0958 42.5007 78.1432 42.1704 77.2209 41.7299C76.2936 41.2876 75.4553 40.739 74.7059 40.0821C73.9556 39.4243 73.2931 38.6583 72.7186 37.7841C72.1422 36.907 71.7083 35.9423 71.4211 34.8883C71.1338 33.8381 70.9902 32.7022 70.9902 31.4807V18.3893C70.9902 18.1475 71.0341 17.93 71.1221 17.7381C71.212 17.5414 71.3488 17.3748 71.5286 17.2384C71.6985 17.1104 71.8842 17.0126 72.0855 16.9504C72.2848 16.8864 72.4978 16.8535 72.7245 16.8535C72.9638 16.8535 73.1876 16.8874 73.3957 16.9551C73.6077 17.0229 73.7982 17.1264 73.9663 17.261C74.1451 17.404 74.28 17.5744 74.3678 17.771C74.4558 17.9649 74.4998 18.1851 74.4998 18.427V31.4797C74.4998 32.3615 74.6004 33.1774 74.8036 33.9275C75.0049 34.6738 75.3068 35.3579 75.7083 35.9771C76.1119 36.5973 76.5779 37.1432 77.1085 37.6118C77.6381 38.0805 78.2311 38.4729 78.8867 38.7891C79.5463 39.1062 80.2272 39.3462 80.9288 39.5053C81.6293 39.6643 82.3533 39.7433 83.0998 39.7433C84.5898 39.7433 85.9944 39.4253 87.314 38.7882C87.9695 38.4719 88.5637 38.0795 89.0922 37.6109C89.6224 37.1422 90.0896 36.5955 90.4911 35.9762C90.8934 35.3561 91.1952 34.6738 91.3972 33.9266C91.5984 33.1765 91.6999 32.3616 91.6999 31.4788V18.5437Z" fill="#00D29D"/>
<path d="M112.17 17.1671C113.922 17.1671 115.538 17.5106 117.019 18.2004C118.5 18.8893 119.612 19.8746 120.353 21.1535V11.3569C120.353 10.8318 120.539 10.414 120.909 10.1015C121.279 9.78903 121.717 9.63379 122.222 9.63379C122.727 9.63379 123.157 9.78996 123.509 10.1015C123.863 10.414 124.041 10.8308 124.041 11.3569V40.7957C124.041 41.3217 123.873 41.7396 123.536 42.0511C123.199 42.3626 122.745 42.5189 122.172 42.5189C121.027 42.5189 120.454 41.9438 120.454 40.7957V38.7771C119.646 40.2216 118.485 41.2879 116.97 41.9767C115.455 42.6666 113.855 43.011 112.17 43.011C109.781 43.011 107.608 42.4944 105.653 41.4611C103.701 40.4268 102.143 38.9249 100.982 36.9561C99.8205 34.9864 99.2383 32.6234 99.2383 29.867C99.2383 27.9961 99.6679 26.0838 100.526 24.1311C101.386 22.1783 102.783 20.5286 104.719 19.1838C106.656 17.8381 109.14 17.1671 112.17 17.1671ZM112.472 39.6156C114.729 39.4839 116.607 38.746 118.104 37.4003C119.603 36.0536 120.352 34.2665 120.352 32.0333V28.1448C120.352 26.0113 119.595 24.2393 118.078 22.8277C116.564 21.4161 114.644 20.6623 112.321 20.5625C109.996 20.5625 108.137 21.0632 106.739 22.0644C105.34 23.0658 104.356 24.2713 103.784 25.6829C103.211 27.0936 102.924 28.4393 102.924 29.7193C102.924 32.0813 103.43 34.0021 104.439 35.4786C105.45 36.9552 106.687 38.0139 108.152 38.6538C109.617 39.2937 111.058 39.6156 112.472 39.6156Z" fill="#00D29D"/>
<path d="M127.6 19.3882C127.53 19.2526 127.496 19.0503 127.496 18.783C127.496 18.2786 127.704 17.8589 128.118 17.522C128.531 17.186 129.013 17.0176 129.567 17.0176C129.911 17.0176 130.23 17.1013 130.524 17.2697C130.817 17.4383 131.033 17.6904 131.171 18.0274L141.058 37.2489L151.047 17.9775C151.186 17.6745 151.401 17.4392 151.695 17.2707C151.988 17.1023 152.309 17.0185 152.653 17.0185C153.136 17.0185 153.576 17.1616 153.973 17.4467C154.371 17.7328 154.569 18.112 154.569 18.5826C154.569 18.7501 154.517 18.9684 154.412 19.2376L142.714 41.8894C142.543 42.2592 142.291 42.5444 141.964 42.7467C141.636 42.949 141.299 43.0497 140.955 43.0497C140.299 43.0497 139.746 42.6808 139.298 41.9401L127.6 19.3882Z" fill="#00D29D"/>
<path d="M30.9029 35.622C31.3278 36.036 31.5399 36.467 31.5399 36.9169C31.5399 37.4006 31.3455 37.8232 30.9556 38.1855C30.5657 38.5487 30.1222 38.7304 29.6258 38.7304C29.1657 38.7304 28.7045 38.5402 28.2443 38.16L19.1001 29.5078C18.5334 29.0589 18.25 28.5752 18.25 28.0576C18.25 27.4694 18.551 26.9179 19.1528 26.3994L28.3488 17.7998C28.7739 17.3509 29.2702 17.126 29.8369 17.126C30.2971 17.126 30.7054 17.2907 31.0592 17.6181C31.4138 17.9476 31.5917 18.3353 31.5917 18.7832C31.5917 19.1973 31.3787 19.6462 30.9537 20.1299L22.3947 28.0049L30.8999 35.621L30.9029 35.622Z" fill="#00D29D"/>
<path d="M31.224 39.9266C30.799 40.3416 30.586 40.7727 30.586 41.2206C30.586 41.7052 30.7804 42.1278 31.1702 42.4892C31.5602 42.8524 32.0028 43.0341 32.4991 43.0341C32.9593 43.0341 33.4204 42.8439 33.8816 42.4628L43.0249 33.8124C43.5915 33.3626 43.8759 32.8798 43.8759 32.3622C43.8759 31.775 43.575 31.2226 42.9711 30.7041L33.7751 22.1035C33.3501 21.6546 32.8538 21.4297 32.2871 21.4297C31.8269 21.4297 31.4185 21.5944 31.0657 21.9219C30.7101 22.2494 30.5332 22.6381 30.5332 23.087C30.5332 23.501 30.7462 23.9509 31.1713 24.4337L39.7302 32.3086L31.224 39.9266Z" fill="#00D29D"/>
<path d="M198.362 40.4598C198.362 42.741 197.821 44.6872 196.739 46.3002C195.657 47.9132 194.177 49.1263 192.3 49.9413C190.423 50.7552 188.317 51.1627 185.983 51.1627C183.953 51.1627 182.169 50.9181 180.63 50.4296C179.091 49.9413 177.661 49.1102 176.343 47.9368C176.106 47.709 175.988 47.4804 175.988 47.2526C175.988 47.0249 176.072 46.8451 176.242 46.7152C176.411 46.5853 176.614 46.5204 176.851 46.5204C177.121 46.5204 177.341 46.5853 177.51 46.7152C178.965 47.7909 180.309 48.524 181.544 48.9145C182.78 49.306 184.259 49.5008 185.984 49.5008C187.911 49.5008 189.679 49.1668 191.286 48.4995C192.894 47.8313 194.179 46.8131 195.143 45.4447C196.107 44.0764 196.588 42.4145 196.588 40.4598V35.9154C195.777 37.7731 194.483 39.2054 192.707 40.2161C190.931 41.2259 188.961 41.7313 186.795 41.7313C184.496 41.7313 182.347 41.2429 180.353 40.2651C178.356 39.2873 176.75 37.8455 175.531 35.9399C174.314 34.0342 173.705 31.7614 173.705 29.1227C173.705 26.2882 174.399 23.7877 175.785 21.6214C177.172 19.4541 179.168 17.8505 181.773 16.8068C183.295 16.1876 184.901 15.8779 186.593 15.8779C188.791 15.8779 190.889 16.4483 192.884 17.5889C194.676 18.7294 195.912 20.1787 196.588 21.9385V17.1004C196.588 16.5132 196.875 16.2205 197.45 16.2205C197.721 16.2205 197.941 16.3024 198.11 16.4652C198.279 16.6289 198.364 16.8397 198.364 17.1004L198.362 40.4598ZM191.31 18.7125C189.619 17.9304 187.91 17.5559 186.185 17.5889C183.784 17.7525 181.704 18.4847 179.943 19.7882C178.422 20.9287 177.296 22.2971 176.57 23.8932C175.843 25.4892 175.479 27.2001 175.479 29.0249C175.479 31.0773 175.918 32.935 176.798 34.596C177.677 36.258 178.971 37.5774 180.679 38.5542C182.387 39.532 184.426 40.0204 186.794 40.0204C188.654 40.0204 190.329 39.6129 191.817 38.7979C193.305 37.9839 194.472 36.8922 195.317 35.524C196.163 34.1556 196.586 32.6565 196.586 31.0274V26.7756C196.586 24.9838 196.128 23.3868 195.216 21.9865C194.302 20.5852 193 19.4945 191.31 18.7125Z" fill="#F8F9FA"/>
<path d="M208.408 22.6216C208.95 20.7648 210.084 19.2582 211.809 18.1006C213.534 16.9441 215.463 16.3662 217.593 16.3662C218.202 16.3662 218.507 16.6429 218.507 17.1972C218.507 17.7515 218.202 18.0282 217.593 18.0282C214.549 18.0282 212.256 19.0954 210.718 21.2288C209.179 23.3631 208.408 26.0424 208.408 29.2684V40.3129C208.408 40.5736 208.325 40.7854 208.156 40.9481C207.986 41.111 207.784 41.1929 207.546 41.1929C207.276 41.1929 207.056 41.111 206.887 40.9481C206.717 40.7854 206.633 40.5736 206.633 40.3129V17.1972C206.633 16.9695 206.717 16.7737 206.887 16.6109C207.056 16.4481 207.276 16.3662 207.546 16.3662C207.784 16.3662 207.986 16.4481 208.156 16.6109C208.325 16.7737 208.408 16.9695 208.408 17.1972V22.6216Z" fill="#F8F9FA"/>
<path d="M234.134 41.7303C232.104 41.7303 230.227 41.3557 228.501 40.6066C226.776 39.8566 225.288 38.7818 224.036 37.3806C222.007 34.9695 220.992 32.119 220.992 28.8281C220.992 26.9704 221.365 25.1795 222.109 23.4527C222.853 21.7258 223.927 20.2351 225.331 18.9806C226.735 17.7261 228.385 16.8387 230.278 16.3174C231.428 16.0237 232.713 15.877 234.135 15.877C235.386 15.877 236.654 16.0237 237.94 16.3174C240.612 17.0344 242.778 18.4678 244.435 20.6181C246.091 22.7685 247.039 25.1955 247.276 27.9002C247.479 31.6146 246.464 34.7748 244.231 37.3806C242.98 38.7818 241.49 39.8566 239.766 40.6066C238.041 41.3557 236.163 41.7303 234.134 41.7303ZM237.381 17.9793C236.298 17.7186 235.199 17.5878 234.083 17.5878C233.035 17.5878 231.97 17.7186 230.887 17.9793C228.418 18.6305 226.456 19.9989 225 22.0843C223.546 24.1697 222.819 26.4829 222.819 29.0238C222.819 30.3592 223.039 31.6551 223.479 32.9095C223.919 34.163 224.578 35.2961 225.457 36.3059C226.505 37.5114 227.791 38.4393 229.314 39.0915C230.836 39.7427 232.442 40.0693 234.134 40.0693C235.859 40.0693 237.491 39.7437 239.029 39.0915C240.568 38.4403 241.862 37.5114 242.911 36.3059C243.79 35.2961 244.45 34.1715 244.89 32.934C245.329 31.6956 245.549 30.4091 245.549 29.0727C245.549 26.5319 244.813 24.2102 243.342 22.1088C241.871 20.0073 239.884 18.6315 237.381 17.9793Z" fill="#F8F9FA"/>
<path d="M255.596 31.0272C255.596 32.7212 256.045 34.2608 256.941 35.6451C257.838 37.0304 259.022 38.1136 260.494 38.8956C261.965 39.6767 263.545 40.0682 265.237 40.0682C266.995 40.0682 268.755 39.6033 270.514 38.6754C272.273 37.7466 273.727 36.4196 274.877 34.6927C276.028 32.9658 276.603 30.9623 276.603 28.6821V17.2461C276.603 16.6598 276.891 16.3662 277.465 16.3662C277.735 16.3662 277.955 16.4481 278.124 16.6109C278.294 16.7737 278.378 16.9854 278.378 17.2461V40.4107C278.378 40.6385 278.294 40.8342 278.124 40.997C277.955 41.1598 277.735 41.2417 277.465 41.2417C276.891 41.2417 276.603 40.9481 276.603 40.3618V33.5202C276.096 35.312 275.233 36.8271 274.014 38.0647C272.797 39.3031 271.426 40.2235 269.906 40.8258C268.383 41.428 266.895 41.7301 265.44 41.7301C263.445 41.7301 261.558 41.3142 259.784 40.4832C258.007 39.6522 256.57 38.4232 255.47 36.7932C254.371 35.1642 253.822 33.2416 253.822 31.0263V17.2442C253.822 16.6579 254.11 16.3643 254.685 16.3643C254.955 16.3643 255.175 16.4461 255.345 16.609C255.514 16.7718 255.599 16.9835 255.599 17.2442V31.0263L255.596 31.0272Z" fill="#F8F9FA"/>
<path d="M303.646 40.8504C302.226 41.4367 300.432 41.7303 298.269 41.7303C296.104 41.7303 294.134 41.225 292.357 40.2152C290.581 39.2054 289.287 37.7722 288.476 35.9145V50.0382C288.476 50.6244 288.188 50.9181 287.613 50.9181C287.342 50.9181 287.122 50.8371 286.953 50.6735C286.784 50.5106 286.699 50.2988 286.699 50.0382V17.2463C286.699 16.9856 286.784 16.7739 286.953 16.611C287.122 16.4483 287.342 16.3664 287.613 16.3664C288.188 16.3664 288.476 16.66 288.476 17.2463V21.9385C289.152 20.1787 290.387 18.7294 292.18 17.5889C294.174 16.4492 296.272 15.8779 298.471 15.8779C300.738 15.8779 302.859 16.4238 304.838 17.5154C306.816 18.6071 308.399 20.1627 309.582 22.1832C310.766 24.2027 311.358 26.5328 311.358 29.1716C311.358 31.7784 310.682 34.149 309.329 36.2824C307.976 38.4168 306.081 39.9376 303.646 40.8504ZM288.476 31.0274C288.476 32.6894 288.899 34.1876 289.745 35.524C290.59 36.8593 291.758 37.9265 293.245 38.7245C294.734 39.5226 296.408 39.9545 298.269 40.0195C300.636 40.0514 302.674 39.579 304.382 38.6022C306.091 37.6244 307.384 36.3051 308.264 34.644C309.143 32.9821 309.583 31.1253 309.583 29.0729C309.583 26.5319 308.991 24.3975 307.806 22.6707C306.622 20.9438 305.177 19.6658 303.468 18.8348C301.76 18.0039 300.128 17.5879 298.572 17.5879C296.813 17.5879 295.164 17.9464 293.625 18.6635C292.087 19.3807 290.844 20.4309 289.896 21.8152C288.95 23.2005 288.476 24.853 288.476 26.7756V31.0274Z" fill="#F8F9FA"/>
<path d="M163.472 9.39998C163.476 8.9897 163.822 8.66029 164.245 8.6641C164.668 8.66781 165.008 9.00288 165.005 9.41317L163.472 9.39998ZM163.109 50.7511L163.472 9.39998L165.005 9.41317L164.643 50.7642L163.109 50.7511ZM164.643 50.7642C164.639 51.1745 164.293 51.5039 163.87 51.5001C163.447 51.4963 163.107 51.1613 163.109 50.7511L164.643 50.7642Z" fill="#F8F9FA"/>
</g>
<defs>
<clipPath id="clip0_169_12190">
<rect width="312" height="60" fill="white"/>
</clipPath>
</defs>
</svg>
